<?xml version="1.0" encoding="utf-8" standalone="no"?>
<!DOCTYPE svg PUBLIC "-//W3C//DTD SVG 1.1//EN"
  "http://www.w3.org/Graphics/SVG/1.1/DTD/svg11.dtd">
<svg xmlns:xlink="http://www.w3.org/1999/xlink" width="460.8pt" height="345.6pt" viewBox="0 0 460.8 345.6" xmlns="http://www.w3.org/2000/svg" version="1.1">
 <metadata>
  <rdf:RDF xmlns:dc="http://purl.org/dc/elements/1.1/" xmlns:cc="http://creativecommons.org/ns#" xmlns:rdf="http://www.w3.org/1999/02/22-rdf-syntax-ns#">
   <cc:Work>
    <dc:type rdf:resource="http://purl.org/dc/dcmitype/StillImage"/>
    <dc:date>2024-01-04T18:56:07.521922</dc:date>
    <dc:format>image/svg+xml</dc:format>
    <dc:creator>
     <cc:Agent>
      <dc:title>Matplotlib v3.8.2, https://matplotlib.org/</dc:title>
     </cc:Agent>
    </dc:creator>
   </cc:Work>
  </rdf:RDF>
 </metadata>
 <defs>
  <style type="text/css">*{stroke-linejoin: round; stroke-linecap: butt}</style>
 </defs>
 <g id="figure_1">
  <g id="patch_1">
   <path d="M 0 345.6 
L 460.8 345.6 
L 460.8 0 
L 0 0 
z
" style="fill: #ffffff"/>
  </g>
  <g id="patch_2">
   <path d="M 103.104 307.584 
L 369.216 307.584 
L 369.216 41.472 
L 103.104 41.472 
z
" style="fill: #ffffff"/>
  </g>
  <g id="pane3d_1">
   <g id="patch_3">
    <path d="M 347.853082 253.944876 
L 268.720605 185.41414 
L 268.720605 48.35267 
L 347.853082 116.883405 
" style="fill: #f2f2f2; opacity: 0.5; stroke: #f2f2f2; stroke-linejoin: miter"/>
   </g>
  </g>
  <g id="pane3d_2">
   <g id="patch_4">
    <path d="M 131.659134 224.980379 
L 268.720605 185.41414 
L 268.720605 48.35267 
L 131.659134 87.918908 
" style="fill: #e6e6e6; opacity: 0.5; stroke: #e6e6e6; stroke-linejoin: miter"/>
   </g>
  </g>
  <g id="pane3d_3">
   <g id="patch_5">
    <path d="M 210.791611 293.511114 
L 347.853082 253.944876 
L 268.720605 185.41414 
L 131.659134 224.980379 
" style="fill: #ececec; opacity: 0.5; stroke: #ececec; stroke-linejoin: miter"/>
   </g>
  </g>
  <g id="axis3d_1">
   <g id="line2d_1">
    <path d="M 347.853082 253.944876 
L 210.791611 293.511114 
" style="fill: none; stroke: #000000; stroke-width: 0.8; stroke-linecap: square"/>
   </g>
   <g id="xtick_1">
    <g id="line2d_2">
     <path d="M 212.899781 292.171543 
L 214.79896 293.816281 
" style="fill: none; stroke: #000000; stroke-width: 0.8; stroke-linecap: square"/>
    </g>
    <g id="text_1">
     <!-- −3 -->
     <g transform="translate(212.727573 317.376743) scale(0.1 -0.1)">
      <defs>
       <path id="DejaVuSans-2212" d="M 678 2272 
L 4684 2272 
L 4684 1741 
L 678 1741 
L 678 2272 
z
" transform="scale(0.015625)"/>
       <path id="DejaVuSans-33" d="M 2597 2516 
Q 3050 2419 3304 2112 
Q 3559 1806 3559 1356 
Q 3559 666 3084 287 
Q 2609 -91 1734 -91 
Q 1441 -91 1130 -33 
Q 819 25 488 141 
L 488 750 
Q 750 597 1062 519 
Q 1375 441 1716 441 
Q 2309 441 2620 675 
Q 2931 909 2931 1356 
Q 2931 1769 2642 2001 
Q 2353 2234 1838 2234 
L 1294 2234 
L 1294 2753 
L 1863 2753 
Q 2328 2753 2575 2939 
Q 2822 3125 2822 3475 
Q 2822 3834 2567 4026 
Q 2313 4219 1838 4219 
Q 1578 4219 1281 4162 
Q 984 4106 628 3988 
L 628 4550 
Q 988 4650 1302 4700 
Q 1616 4750 1894 4750 
Q 2613 4750 3031 4423 
Q 3450 4097 3450 3541 
Q 3450 3153 3228 2886 
Q 3006 2619 2597 2516 
z
" transform="scale(0.015625)"/>
      </defs>
      <use xlink:href="#DejaVuSans-2212"/>
      <use xlink:href="#DejaVuSans-33" x="83.789062"/>
     </g>
    </g>
   </g>
   <g id="xtick_2">
    <g id="line2d_3">
     <path d="M 234.829616 285.840945 
L 236.728796 287.485683 
" style="fill: none; stroke: #000000; stroke-width: 0.8; stroke-linecap: square"/>
    </g>
    <g id="text_2">
     <!-- −2 -->
     <g transform="translate(234.657408 311.046145) scale(0.1 -0.1)">
      <defs>
       <path id="DejaVuSans-32" d="M 1228 531 
L 3431 531 
L 3431 0 
L 469 0 
L 469 531 
Q 828 903 1448 1529 
Q 2069 2156 2228 2338 
Q 2531 2678 2651 2914 
Q 2772 3150 2772 3378 
Q 2772 3750 2511 3984 
Q 2250 4219 1831 4219 
Q 1534 4219 1204 4116 
Q 875 4013 500 3803 
L 500 4441 
Q 881 4594 1212 4672 
Q 1544 4750 1819 4750 
Q 2544 4750 2975 4387 
Q 3406 4025 3406 3419 
Q 3406 3131 3298 2873 
Q 3191 2616 2906 2266 
Q 2828 2175 2409 1742 
Q 1991 1309 1228 531 
z
" transform="scale(0.015625)"/>
      </defs>
      <use xlink:href="#DejaVuSans-2212"/>
      <use xlink:href="#DejaVuSans-32" x="83.789062"/>
     </g>
    </g>
   </g>
   <g id="xtick_3">
    <g id="line2d_4">
     <path d="M 256.759451 279.510347 
L 258.658631 281.155085 
" style="fill: none; stroke: #000000; stroke-width: 0.8; stroke-linecap: square"/>
    </g>
    <g id="text_3">
     <!-- −1 -->
     <g transform="translate(256.587244 304.715547) scale(0.1 -0.1)">
      <defs>
       <path id="DejaVuSans-31" d="M 794 531 
L 1825 531 
L 1825 4091 
L 703 3866 
L 703 4441 
L 1819 4666 
L 2450 4666 
L 2450 531 
L 3481 531 
L 3481 0 
L 794 0 
L 794 531 
z
" transform="scale(0.015625)"/>
      </defs>
      <use xlink:href="#DejaVuSans-2212"/>
      <use xlink:href="#DejaVuSans-31" x="83.789062"/>
     </g>
    </g>
   </g>
   <g id="xtick_4">
    <g id="line2d_5">
     <path d="M 278.689287 273.179749 
L 280.588466 274.824487 
" style="fill: none; stroke: #000000; stroke-width: 0.8; stroke-linecap: square"/>
    </g>
    <g id="text_4">
     <!-- 0 -->
     <g transform="translate(282.706923 298.384949) scale(0.1 -0.1)">
      <defs>
       <path id="DejaVuSans-30" d="M 2034 4250 
Q 1547 4250 1301 3770 
Q 1056 3291 1056 2328 
Q 1056 1369 1301 889 
Q 1547 409 2034 409 
Q 2525 409 2770 889 
Q 3016 1369 3016 2328 
Q 3016 3291 2770 3770 
Q 2525 4250 2034 4250 
z
M 2034 4750 
Q 2819 4750 3233 4129 
Q 3647 3509 3647 2328 
Q 3647 1150 3233 529 
Q 2819 -91 2034 -91 
Q 1250 -91 836 529 
Q 422 1150 422 2328 
Q 422 3509 836 4129 
Q 1250 4750 2034 4750 
z
" transform="scale(0.015625)"/>
      </defs>
      <use xlink:href="#DejaVuSans-30"/>
     </g>
    </g>
   </g>
   <g id="xtick_5">
    <g id="line2d_6">
     <path d="M 300.619122 266.849151 
L 302.518301 268.493888 
" style="fill: none; stroke: #000000; stroke-width: 0.8; stroke-linecap: square"/>
    </g>
    <g id="text_5">
     <!-- 1 -->
     <g transform="translate(304.636758 292.05435) scale(0.1 -0.1)">
      <use xlink:href="#DejaVuSans-31"/>
     </g>
    </g>
   </g>
   <g id="xtick_6">
    <g id="line2d_7">
     <path d="M 322.548957 260.518553 
L 324.448137 262.16329 
" style="fill: none; stroke: #000000; stroke-width: 0.8; stroke-linecap: square"/>
    </g>
    <g id="text_6">
     <!-- 2 -->
     <g transform="translate(326.566593 285.723752) scale(0.1 -0.1)">
      <use xlink:href="#DejaVuSans-32"/>
     </g>
    </g>
   </g>
   <g id="xtick_7">
    <g id="line2d_8">
     <path d="M 344.478793 254.187954 
L 346.377972 255.832692 
" style="fill: none; stroke: #000000; stroke-width: 0.8; stroke-linecap: square"/>
    </g>
    <g id="text_7">
     <!-- 3 -->
     <g transform="translate(348.496428 279.393154) scale(0.1 -0.1)">
      <use xlink:href="#DejaVuSans-33"/>
     </g>
    </g>
   </g>
   <g id="text_8">
    <!-- x1 -->
    <g transform="translate(287.455256 313.571101) scale(0.1 -0.1)">
     <defs>
      <path id="DejaVuSans-78" d="M 3513 3500 
L 2247 1797 
L 3578 0 
L 2900 0 
L 1881 1375 
L 863 0 
L 184 0 
L 1544 1831 
L 300 3500 
L 978 3500 
L 1906 2253 
L 2834 3500 
L 3513 3500 
z
" transform="scale(0.015625)"/>
     </defs>
     <use xlink:href="#DejaVuSans-78"/>
     <use xlink:href="#DejaVuSans-31" x="59.179688"/>
    </g>
   </g>
  </g>
  <g id="axis3d_2">
   <g id="line2d_9">
    <path d="M 131.659134 224.980379 
L 210.791611 293.511114 
" style="fill: none; stroke: #000000; stroke-width: 0.8; stroke-linecap: square"/>
   </g>
   <g id="xtick_8">
    <g id="line2d_10">
     <path d="M 210.305454 291.823969 
L 207.015978 292.773559 
" style="fill: none; stroke: #000000; stroke-width: 0.8; stroke-linecap: square"/>
    </g>
    <g id="text_9">
     <!-- −3 -->
     <g transform="translate(190.465524 314.394194) scale(0.1 -0.1)">
      <use xlink:href="#DejaVuSans-2212"/>
      <use xlink:href="#DejaVuSans-33" x="83.789062"/>
     </g>
    </g>
   </g>
   <g id="xtick_9">
    <g id="line2d_11">
     <path d="M 197.644257 280.859052 
L 194.354782 281.808641 
" style="fill: none; stroke: #000000; stroke-width: 0.8; stroke-linecap: square"/>
    </g>
    <g id="text_10">
     <!-- −2 -->
     <g transform="translate(177.804327 303.429276) scale(0.1 -0.1)">
      <use xlink:href="#DejaVuSans-2212"/>
      <use xlink:href="#DejaVuSans-32" x="83.789062"/>
     </g>
    </g>
   </g>
   <g id="xtick_10">
    <g id="line2d_12">
     <path d="M 184.983061 269.894134 
L 181.693586 270.843724 
" style="fill: none; stroke: #000000; stroke-width: 0.8; stroke-linecap: square"/>
    </g>
    <g id="text_11">
     <!-- −1 -->
     <g transform="translate(165.143131 292.464359) scale(0.1 -0.1)">
      <use xlink:href="#DejaVuSans-2212"/>
      <use xlink:href="#DejaVuSans-31" x="83.789062"/>
     </g>
    </g>
   </g>
   <g id="xtick_11">
    <g id="line2d_13">
     <path d="M 172.321865 258.929216 
L 169.032389 259.878806 
" style="fill: none; stroke: #000000; stroke-width: 0.8; stroke-linecap: square"/>
    </g>
    <g id="text_12">
     <!-- 0 -->
     <g transform="translate(156.671779 281.499441) scale(0.1 -0.1)">
      <use xlink:href="#DejaVuSans-30"/>
     </g>
    </g>
   </g>
   <g id="xtick_12">
    <g id="line2d_14">
     <path d="M 159.660668 247.964299 
L 156.371193 248.913889 
" style="fill: none; stroke: #000000; stroke-width: 0.8; stroke-linecap: square"/>
    </g>
    <g id="text_13">
     <!-- 1 -->
     <g transform="translate(144.010582 270.534523) scale(0.1 -0.1)">
      <use xlink:href="#DejaVuSans-31"/>
     </g>
    </g>
   </g>
   <g id="xtick_13">
    <g id="line2d_15">
     <path d="M 146.999472 236.999381 
L 143.709997 237.948971 
" style="fill: none; stroke: #000000; stroke-width: 0.8; stroke-linecap: square"/>
    </g>
    <g id="text_14">
     <!-- 2 -->
     <g transform="translate(131.349386 259.569606) scale(0.1 -0.1)">
      <use xlink:href="#DejaVuSans-32"/>
     </g>
    </g>
   </g>
   <g id="xtick_14">
    <g id="line2d_16">
     <path d="M 134.338276 226.034464 
L 131.0488 226.984053 
" style="fill: none; stroke: #000000; stroke-width: 0.8; stroke-linecap: square"/>
    </g>
    <g id="text_15">
     <!-- 3 -->
     <g transform="translate(118.68819 248.604688) scale(0.1 -0.1)">
      <use xlink:href="#DejaVuSans-33"/>
     </g>
    </g>
   </g>
   <g id="text_16">
    <!-- x2 -->
    <g transform="translate(140.36226 293.864376) scale(0.1 -0.1)">
     <use xlink:href="#DejaVuSans-78"/>
     <use xlink:href="#DejaVuSans-32" x="59.179688"/>
    </g>
   </g>
  </g>
  <g id="axis3d_3">
   <g id="line2d_17">
    <path d="M 131.659134 224.980379 
L 131.659134 87.918908 
" style="fill: none; stroke: #000000; stroke-width: 0.8; stroke-linecap: square"/>
   </g>
   <g id="xtick_15">
    <g id="line2d_18">
     <path d="M 132.755626 221.922619 
L 129.466151 222.872209 
" style="fill: none; stroke: #000000; stroke-width: 0.8; stroke-linecap: square"/>
    </g>
    <g id="text_17">
     <!-- 0.0 -->
     <g transform="translate(105.769402 227.434328) scale(0.1 -0.1)">
      <defs>
       <path id="DejaVuSans-2e" d="M 684 794 
L 1344 794 
L 1344 0 
L 684 0 
L 684 794 
z
" transform="scale(0.015625)"/>
      </defs>
      <use xlink:href="#DejaVuSans-30"/>
      <use xlink:href="#DejaVuSans-2e" x="63.623047"/>
      <use xlink:href="#DejaVuSans-30" x="95.410156"/>
     </g>
    </g>
   </g>
   <g id="xtick_16">
    <g id="line2d_19">
     <path d="M 132.755626 195.606817 
L 129.466151 196.556407 
" style="fill: none; stroke: #000000; stroke-width: 0.8; stroke-linecap: square"/>
    </g>
    <g id="text_18">
     <!-- 0.2 -->
     <g transform="translate(105.769402 201.118525) scale(0.1 -0.1)">
      <use xlink:href="#DejaVuSans-30"/>
      <use xlink:href="#DejaVuSans-2e" x="63.623047"/>
      <use xlink:href="#DejaVuSans-32" x="95.410156"/>
     </g>
    </g>
   </g>
   <g id="xtick_17">
    <g id="line2d_20">
     <path d="M 132.755626 169.291015 
L 129.466151 170.240604 
" style="fill: none; stroke: #000000; stroke-width: 0.8; stroke-linecap: square"/>
    </g>
    <g id="text_19">
     <!-- 0.4 -->
     <g transform="translate(105.769402 174.802723) scale(0.1 -0.1)">
      <defs>
       <path id="DejaVuSans-34" d="M 2419 4116 
L 825 1625 
L 2419 1625 
L 2419 4116 
z
M 2253 4666 
L 3047 4666 
L 3047 1625 
L 3713 1625 
L 3713 1100 
L 3047 1100 
L 3047 0 
L 2419 0 
L 2419 1100 
L 313 1100 
L 313 1709 
L 2253 4666 
z
" transform="scale(0.015625)"/>
      </defs>
      <use xlink:href="#DejaVuSans-30"/>
      <use xlink:href="#DejaVuSans-2e" x="63.623047"/>
      <use xlink:href="#DejaVuSans-34" x="95.410156"/>
     </g>
    </g>
   </g>
   <g id="xtick_18">
    <g id="line2d_21">
     <path d="M 132.755626 142.975212 
L 129.466151 143.924802 
" style="fill: none; stroke: #000000; stroke-width: 0.8; stroke-linecap: square"/>
    </g>
    <g id="text_20">
     <!-- 0.6 -->
     <g transform="translate(105.769402 148.486921) scale(0.1 -0.1)">
      <defs>
       <path id="DejaVuSans-36" d="M 2113 2584 
Q 1688 2584 1439 2293 
Q 1191 2003 1191 1497 
Q 1191 994 1439 701 
Q 1688 409 2113 409 
Q 2538 409 2786 701 
Q 3034 994 3034 1497 
Q 3034 2003 2786 2293 
Q 2538 2584 2113 2584 
z
M 3366 4563 
L 3366 3988 
Q 3128 4100 2886 4159 
Q 2644 4219 2406 4219 
Q 1781 4219 1451 3797 
Q 1122 3375 1075 2522 
Q 1259 2794 1537 2939 
Q 1816 3084 2150 3084 
Q 2853 3084 3261 2657 
Q 3669 2231 3669 1497 
Q 3669 778 3244 343 
Q 2819 -91 2113 -91 
Q 1303 -91 875 529 
Q 447 1150 447 2328 
Q 447 3434 972 4092 
Q 1497 4750 2381 4750 
Q 2619 4750 2861 4703 
Q 3103 4656 3366 4563 
z
" transform="scale(0.015625)"/>
      </defs>
      <use xlink:href="#DejaVuSans-30"/>
      <use xlink:href="#DejaVuSans-2e" x="63.623047"/>
      <use xlink:href="#DejaVuSans-36" x="95.410156"/>
     </g>
    </g>
   </g>
   <g id="xtick_19">
    <g id="line2d_22">
     <path d="M 132.755626 116.65941 
L 129.466151 117.609 
" style="fill: none; stroke: #000000; stroke-width: 0.8; stroke-linecap: square"/>
    </g>
    <g id="text_21">
     <!-- 0.8 -->
     <g transform="translate(105.769402 122.171118) scale(0.1 -0.1)">
      <defs>
       <path id="DejaVuSans-38" d="M 2034 2216 
Q 1584 2216 1326 1975 
Q 1069 1734 1069 1313 
Q 1069 891 1326 650 
Q 1584 409 2034 409 
Q 2484 409 2743 651 
Q 3003 894 3003 1313 
Q 3003 1734 2745 1975 
Q 2488 2216 2034 2216 
z
M 1403 2484 
Q 997 2584 770 2862 
Q 544 3141 544 3541 
Q 544 4100 942 4425 
Q 1341 4750 2034 4750 
Q 2731 4750 3128 4425 
Q 3525 4100 3525 3541 
Q 3525 3141 3298 2862 
Q 3072 2584 2669 2484 
Q 3125 2378 3379 2068 
Q 3634 1759 3634 1313 
Q 3634 634 3220 271 
Q 2806 -91 2034 -91 
Q 1263 -91 848 271 
Q 434 634 434 1313 
Q 434 1759 690 2068 
Q 947 2378 1403 2484 
z
M 1172 3481 
Q 1172 3119 1398 2916 
Q 1625 2713 2034 2713 
Q 2441 2713 2670 2916 
Q 2900 3119 2900 3481 
Q 2900 3844 2670 4047 
Q 2441 4250 2034 4250 
Q 1625 4250 1398 4047 
Q 1172 3844 1172 3481 
z
" transform="scale(0.015625)"/>
      </defs>
      <use xlink:href="#DejaVuSans-30"/>
      <use xlink:href="#DejaVuSans-2e" x="63.623047"/>
      <use xlink:href="#DejaVuSans-38" x="95.410156"/>
     </g>
    </g>
   </g>
   <g id="xtick_20">
    <g id="line2d_23">
     <path d="M 132.755626 90.343608 
L 129.466151 91.293197 
" style="fill: none; stroke: #000000; stroke-width: 0.8; stroke-linecap: square"/>
    </g>
    <g id="text_22">
     <!-- 1.0 -->
     <g transform="translate(105.769402 95.855316) scale(0.1 -0.1)">
      <use xlink:href="#DejaVuSans-31"/>
      <use xlink:href="#DejaVuSans-2e" x="63.623047"/>
      <use xlink:href="#DejaVuSans-30" x="95.410156"/>
     </g>
    </g>
   </g>
   <g id="text_23">
    <!-- f(x1,x2) -->
    <g transform="translate(95.422487 170.757198) rotate(-90) scale(0.1 -0.1)">
     <defs>
      <path id="DejaVuSans-66" d="M 2375 4863 
L 2375 4384 
L 1825 4384 
Q 1516 4384 1395 4259 
Q 1275 4134 1275 3809 
L 1275 3500 
L 2222 3500 
L 2222 3053 
L 1275 3053 
L 1275 0 
L 697 0 
L 697 3053 
L 147 3053 
L 147 3500 
L 697 3500 
L 697 3744 
Q 697 4328 969 4595 
Q 1241 4863 1831 4863 
L 2375 4863 
z
" transform="scale(0.015625)"/>
      <path id="DejaVuSans-28" d="M 1984 4856 
Q 1566 4138 1362 3434 
Q 1159 2731 1159 2009 
Q 1159 1288 1364 580 
Q 1569 -128 1984 -844 
L 1484 -844 
Q 1016 -109 783 600 
Q 550 1309 550 2009 
Q 550 2706 781 3412 
Q 1013 4119 1484 4856 
L 1984 4856 
z
" transform="scale(0.015625)"/>
      <path id="DejaVuSans-2c" d="M 750 794 
L 1409 794 
L 1409 256 
L 897 -744 
L 494 -744 
L 750 256 
L 750 794 
z
" transform="scale(0.015625)"/>
      <path id="DejaVuSans-29" d="M 513 4856 
L 1013 4856 
Q 1481 4119 1714 3412 
Q 1947 2706 1947 2009 
Q 1947 1309 1714 600 
Q 1481 -109 1013 -844 
L 513 -844 
Q 928 -128 1133 580 
Q 1338 1288 1338 2009 
Q 1338 2731 1133 3434 
Q 928 4138 513 4856 
z
" transform="scale(0.015625)"/>
     </defs>
     <use xlink:href="#DejaVuSans-66"/>
     <use xlink:href="#DejaVuSans-28" x="35.205078"/>
     <use xlink:href="#DejaVuSans-78" x="74.21875"/>
     <use xlink:href="#DejaVuSans-31" x="133.398438"/>
     <use xlink:href="#DejaVuSans-2c" x="197.021484"/>
     <use xlink:href="#DejaVuSans-78" x="228.808594"/>
     <use xlink:href="#DejaVuSans-32" x="287.988281"/>
     <use xlink:href="#DejaVuSans-29" x="351.611328"/>
    </g>
   </g>
  </g>
  <g id="axes_1">
   <g id="Line3DCollection_1">
    <path d="M 211.950191 288.607943 
L 343.529203 250.624354 
L 343.529203 250.624354 
" clip-path="url(#peee7996802)" style="fill: none; stroke: #1f77b4; stroke-width: 1.5"/>
    <path d="M 208.151832 285.318459 
L 339.730844 247.33487 
L 339.730844 247.33487 
" clip-path="url(#peee7996802)" style="fill: none; stroke: #1f77b4; stroke-width: 1.5"/>
    <path d="M 204.353473 282.028943 
L 245.142967 270.14104 
L 276.72193 260.759086 
L 322.116689 248.032175 
L 335.932485 244.045354 
L 335.932485 244.045354 
" clip-path="url(#peee7996802)" style="fill: none; stroke: #1f77b4; stroke-width: 1.5"/>
    <path d="M 200.555115 278.739322 
L 230.818287 269.887367 
L 240.686713 266.747667 
L 250.555139 263.353377 
L 261.08146 259.757223 
L 267.002515 257.959879 
L 272.923571 256.386835 
L 281.476207 254.386083 
L 293.318318 251.608796 
L 302.528849 249.197143 
L 316.344645 245.305124 
L 332.134126 240.755733 
L 332.134126 240.755733 
" clip-path="url(#peee7996802)" style="fill: none; stroke: #1f77b4; stroke-width: 1.5"/>
    <path d="M 196.756756 275.449408 
L 219.783083 268.687924 
L 227.019928 266.340302 
L 232.283089 264.42711 
L 237.546249 262.270173 
L 242.80941 259.863369 
L 255.967311 253.647808 
L 259.914681 252.138448 
L 263.204157 251.119821 
L 266.493632 250.329881 
L 269.783107 249.747707 
L 274.388373 249.189979 
L 288.204169 247.740558 
L 292.809434 246.954659 
L 298.072595 245.829164 
L 304.651545 244.174353 
L 315.177866 241.248576 
L 328.335767 237.465819 
L 328.335767 237.465819 
" clip-path="url(#peee7996802)" style="fill: none; stroke: #1f77b4; stroke-width: 1.5"/>
    <path d="M 192.958397 272.158857 
L 210.721563 266.918205 
L 217.300514 264.743949 
L 221.905779 262.979526 
L 225.85315 261.202961 
L 229.142625 259.473666 
L 232.4321 257.479701 
L 235.721576 255.211064 
L 239.668946 252.170507 
L 250.195267 243.726169 
L 252.826847 241.984739 
L 255.458427 240.558591 
L 257.432112 239.73012 
L 259.405798 239.123006 
L 261.379483 238.73905 
L 263.353168 238.569326 
L 265.326853 238.594899 
L 267.958433 238.884347 
L 271.247909 239.539086 
L 281.77423 241.916808 
L 285.063705 242.286265 
L 288.35318 242.381051 
L 291.642655 242.211166 
L 294.932131 241.811996 
L 298.879501 241.096683 
L 304.142662 239.8734 
L 311.379507 237.931638 
L 324.537408 234.175268 
L 324.537408 234.175268 
" clip-path="url(#peee7996802)" style="fill: none; stroke: #1f77b4; stroke-width: 1.5"/>
    <path d="M 189.160038 268.867246 
L 203.633729 264.562348 
L 208.89689 262.794621 
L 212.84426 261.252745 
L 216.133735 259.725514 
L 218.765315 258.276286 
L 221.396896 256.564828 
L 224.028476 254.535896 
L 226.660056 252.142494 
L 229.291636 249.355667 
L 231.923217 246.175175 
L 234.554797 242.639278 
L 238.502167 236.864427 
L 243.765328 229.07299 
L 246.396908 225.57219 
L 248.370593 223.286929 
L 250.344278 221.378936 
L 251.660068 220.347767 
L 252.975858 219.525828 
L 254.291649 218.922541 
L 255.607439 218.542705 
L 256.923229 218.38632 
L 258.239019 218.448588 
L 259.554809 218.720084 
L 260.870599 219.187093 
L 262.186389 219.832086 
L 264.160074 221.087222 
L 266.13376 222.61578 
L 269.423235 225.534912 
L 274.686395 230.313435 
L 277.317976 232.407645 
L 279.291661 233.759311 
L 281.265346 234.896424 
L 283.239031 235.809551 
L 285.212716 236.500785 
L 287.186402 236.981325 
L 289.160087 237.268905 
L 291.791667 237.39015 
L 294.423247 237.263299 
L 297.712722 236.838971 
L 301.660093 236.061351 
L 306.923253 234.762433 
L 316.133784 232.203952 
L 320.73905 230.883657 
L 320.73905 230.883657 
" clip-path="url(#peee7996802)" style="fill: none; stroke: #1f77b4; stroke-width: 1.5"/>
    <path d="M 185.361679 265.574394 
L 197.20379 262.025301 
L 202.46695 260.220078 
L 205.756426 258.887856 
L 208.388006 257.628309 
L 211.019586 256.118931 
L 212.993271 254.770162 
L 214.966957 253.189026 
L 216.940642 251.330928 
L 218.914327 249.151437 
L 220.888012 246.609638 
L 222.861697 243.672241 
L 224.835382 240.318216 
L 226.809068 236.54363 
L 228.782753 232.366197 
L 231.414333 226.248047 
L 234.703808 217.986113 
L 239.966969 204.69022 
L 241.940654 200.180654 
L 243.914339 196.184467 
L 245.230129 193.880403 
L 246.545919 191.910522 
L 247.861709 190.307737 
L 249.1775 189.097803 
L 250.49329 188.298414 
L 251.80908 187.918578 
L 253.12487 187.958295 
L 254.44066 188.408558 
L 255.75645 189.251671 
L 257.07224 190.46188 
L 258.38803 192.006273 
L 259.703821 193.845911 
L 261.677506 197.062518 
L 264.309086 201.953689 
L 272.203827 217.222835 
L 274.177512 220.507074 
L 276.151197 223.414188 
L 278.124882 225.909891 
L 280.098567 227.984153 
L 282.072253 229.647135 
L 284.045938 230.92449 
L 286.019623 231.852545 
L 287.993308 232.473809 
L 289.966993 232.833098 
L 291.940678 232.974466 
L 294.572259 232.894325 
L 297.203839 232.584076 
L 300.493314 231.975474 
L 305.09858 230.878758 
L 312.99332 228.716944 
L 316.940691 227.590805 
L 316.940691 227.590805 
" clip-path="url(#peee7996802)" style="fill: none; stroke: #1f77b4; stroke-width: 1.5"/>
    <path d="M 181.56332 262.280814 
L 192.089641 259.093169 
L 196.694906 257.482051 
L 199.984382 256.110276 
L 202.615962 254.784292 
L 204.589647 253.596515 
L 206.563332 252.188868 
L 208.537017 250.503854 
L 210.510703 248.47707 
L 212.484388 246.039429 
L 214.458073 243.120643 
L 216.431758 239.654047 
L 218.405443 235.582666 
L 220.379128 230.86627 
L 222.352814 225.488922 
L 224.326499 219.466355 
L 226.958079 210.531591 
L 230.247554 198.278972 
L 236.16861 175.753834 
L 238.142295 169.005224 
L 240.11598 163.061754 
L 241.43177 159.664127 
L 242.74756 156.790605 
L 244.063351 154.492803 
L 245.379141 152.811114 
L 246.037036 152.210507 
L 246.694931 151.773287 
L 247.352826 151.500787 
L 248.010721 151.393451 
L 248.668616 151.450835 
L 249.326511 151.671606 
L 249.984406 152.053557 
L 250.642301 152.593624 
L 251.958091 154.131753 
L 253.273881 156.245604 
L 254.589672 158.883559 
L 255.905462 161.984553 
L 257.879147 167.352994 
L 260.510727 175.455609 
L 268.405468 200.697588 
L 270.379153 206.172099 
L 272.352838 211.055158 
L 274.326523 215.292999 
L 276.300208 218.869887 
L 277.615999 220.89407 
L 278.931789 222.642114 
L 280.247579 224.128848 
L 281.563369 225.371915 
L 282.879159 226.39085 
L 284.194949 227.206261 
L 285.510739 227.839096 
L 287.484424 228.491081 
L 289.45811 228.844913 
L 291.431795 228.960567 
L 294.063375 228.833318 
L 296.694955 228.475437 
L 300.642326 227.666744 
L 305.905486 226.324065 
L 313.142332 224.297225 
L 313.142332 224.297225 
" clip-path="url(#peee7996802)" style="fill: none; stroke: #1f77b4; stroke-width: 1.5"/>
    <path d="M 177.764961 258.987827 
L 186.975492 256.189197 
L 191.580757 254.577159 
L 194.870233 253.194392 
L 197.501813 251.843418 
L 199.475498 250.619418 
L 201.449183 249.151804 
L 203.422868 247.372185 
L 205.396554 245.201996 
L 207.370239 242.554426 
L 208.686029 240.478977 
L 210.001819 238.123309 
L 211.975504 234.007098 
L 213.949189 229.121559 
L 215.922875 223.405597 
L 217.89656 216.826622 
L 219.870245 209.390398 
L 221.84393 201.149957 
L 224.47551 189.105048 
L 228.422881 169.676937 
L 232.370251 150.526587 
L 234.343936 141.862752 
L 236.317621 134.253621 
L 237.633411 129.920586 
L 238.949202 126.27411 
L 240.264992 123.381807 
L 241.580782 121.296589 
L 242.238677 120.568683 
L 242.896572 120.054809 
L 243.554467 119.756711 
L 244.212362 119.674973 
L 244.870257 119.809012 
L 245.528152 120.157081 
L 246.186047 120.716291 
L 246.843942 121.482628 
L 248.159732 123.615258 
L 249.475523 126.502063 
L 250.791313 130.075427 
L 252.107103 134.255353 
L 254.080788 141.464424 
L 256.712368 152.314032 
L 264.607109 186.086542 
L 266.580794 193.43456 
L 268.554479 200.007797 
L 270.528164 205.735821 
L 272.50185 210.598021 
L 273.81764 213.367364 
L 275.13343 215.774976 
L 276.44922 217.84028 
L 277.76501 219.586388 
L 279.0808 221.038893 
L 280.39659 222.224788 
L 281.71238 223.171515 
L 283.02817 223.906175 
L 284.343961 224.454889 
L 286.317646 224.982745 
L 288.291331 225.22258 
L 290.265016 225.239192 
L 292.896596 225.005853 
L 296.186072 224.438503 
L 300.791337 223.355687 
L 308.028183 221.37772 
L 309.343973 221.004238 
L 309.343973 221.004238 
" clip-path="url(#peee7996802)" style="fill: none; stroke: #1f77b4; stroke-width: 1.5"/>
    <path d="M 173.966602 255.696954 
L 183.177133 252.885161 
L 187.782398 251.246508 
L 191.071874 249.822947 
L 193.703454 248.416287 
L 195.677139 247.130674 
L 197.650824 245.578505 
L 199.62451 243.684947 
L 201.598195 241.364039 
L 202.913985 239.532712 
L 204.229775 237.439694 
L 205.545565 235.054958 
L 206.861355 232.348969 
L 208.177145 229.293723 
L 210.15083 224.001748 
L 212.124516 217.801146 
L 214.098201 210.656256 
L 216.071886 202.573387 
L 218.045571 193.610564 
L 220.677151 180.502877 
L 224.624522 159.35245 
L 228.571892 138.505942 
L 230.545577 129.079853 
L 232.519262 120.807793 
L 233.835053 116.102469 
L 235.150843 112.148358 
L 236.466633 109.019446 
L 237.782423 106.773625 
L 238.440318 105.995055 
L 239.098213 105.450672 
L 239.756108 105.142386 
L 240.414003 105.070836 
L 241.071898 105.235383 
L 241.729793 105.634117 
L 242.387688 106.263875 
L 243.045583 107.120267 
L 243.703478 108.197715 
L 245.019269 110.987851 
L 246.335059 114.568056 
L 247.650849 118.857229 
L 249.624534 126.413828 
L 251.598219 135.004497 
L 254.887694 150.616224 
L 259.49296 172.489875 
L 262.12454 183.775569 
L 264.098225 191.315546 
L 266.07191 197.94996 
L 268.045596 203.638992 
L 269.361386 206.909133 
L 270.677176 209.774799 
L 271.992966 212.254704 
L 273.308756 214.372289 
L 274.624546 216.154358 
L 275.940336 217.629818 
L 277.256126 218.82857 
L 278.571917 219.780552 
L 279.887707 220.514958 
L 281.203497 221.05962 
L 283.177182 221.577186 
L 285.150867 221.804559 
L 287.124552 221.808674 
L 289.756133 221.560608 
L 293.045608 220.979353 
L 297.650873 219.884931 
L 305.545614 217.713365 
L 305.545614 217.713365 
" clip-path="url(#peee7996802)" style="fill: none; stroke: #1f77b4; stroke-width: 1.5"/>
    <path d="M 170.168243 252.408876 
L 179.378774 249.610247 
L 183.98404 247.998209 
L 187.273515 246.615442 
L 189.905095 245.264468 
L 191.87878 244.040467 
L 193.852465 242.572853 
L 195.826151 240.793234 
L 197.799836 238.623046 
L 199.773521 235.975476 
L 201.089311 233.900027 
L 202.405101 231.544359 
L 204.378786 227.428148 
L 206.352472 222.542609 
L 208.326157 216.826647 
L 210.299842 210.247671 
L 212.273527 202.811447 
L 214.247212 194.571006 
L 216.878793 182.526098 
L 220.826163 163.097986 
L 224.773533 143.947637 
L 226.747218 135.283802 
L 228.720904 127.674671 
L 230.036694 123.341636 
L 231.352484 119.695159 
L 232.668274 116.802856 
L 233.984064 114.717639 
L 234.641959 113.989733 
L 235.299854 113.475858 
L 235.957749 113.17776 
L 236.615644 113.096022 
L 237.273539 113.230061 
L 237.931434 113.578131 
L 238.589329 114.13734 
L 239.247225 114.903677 
L 240.563015 117.036308 
L 241.878805 119.923113 
L 243.194595 123.496476 
L 244.510385 127.676402 
L 246.48407 134.885473 
L 249.11565 145.735082 
L 257.010391 179.507591 
L 258.984076 186.855609 
L 260.957761 193.428846 
L 262.931447 199.15687 
L 264.905132 204.01907 
L 266.220922 206.788414 
L 267.536712 209.196025 
L 268.852502 211.26133 
L 270.168292 213.007438 
L 271.484082 214.459943 
L 272.799872 215.645837 
L 274.115663 216.592564 
L 275.431453 217.327224 
L 276.747243 217.875938 
L 278.720928 218.403795 
L 280.694613 218.643629 
L 282.668298 218.660242 
L 285.299879 218.426902 
L 288.589354 217.859553 
L 293.194619 216.776736 
L 300.431465 214.798769 
L 301.747255 214.425287 
L 301.747255 214.425287 
" clip-path="url(#peee7996802)" style="fill: none; stroke: #1f77b4; stroke-width: 1.5"/>
    <path d="M 166.369884 249.122913 
L 176.896205 245.935268 
L 181.501471 244.32415 
L 184.790946 242.952375 
L 187.422526 241.626391 
L 189.396212 240.438614 
L 191.369897 239.030967 
L 193.343582 237.345953 
L 195.317267 235.319169 
L 197.290952 232.881528 
L 199.264637 229.962742 
L 201.238323 226.496145 
L 203.212008 222.424765 
L 205.185693 217.708369 
L 207.159378 212.331021 
L 209.133063 206.308454 
L 211.764644 197.37369 
L 215.054119 185.121071 
L 220.975174 162.595933 
L 222.94886 155.847323 
L 224.922545 149.903853 
L 226.238335 146.506226 
L 227.554125 143.632703 
L 228.869915 141.334902 
L 230.185705 139.653213 
L 230.8436 139.052606 
L 231.501495 138.615386 
L 232.15939 138.342886 
L 232.817285 138.23555 
L 233.47518 138.292934 
L 234.133076 138.513705 
L 234.790971 138.895655 
L 235.448866 139.435723 
L 236.764656 140.973852 
L 238.080446 143.087703 
L 239.396236 145.725658 
L 240.712026 148.826651 
L 242.685711 154.195093 
L 245.317291 162.297707 
L 253.212032 187.539687 
L 255.185717 193.014198 
L 257.159403 197.897257 
L 259.133088 202.135098 
L 261.106773 205.711986 
L 262.422563 207.736169 
L 263.738353 209.484213 
L 265.054143 210.970947 
L 266.369933 212.214013 
L 267.685723 213.232949 
L 269.001514 214.048359 
L 270.317304 214.681194 
L 272.290989 215.333179 
L 274.264674 215.687012 
L 276.238359 215.802666 
L 278.869939 215.675417 
L 281.50152 215.317536 
L 285.44889 214.508843 
L 290.712051 213.166163 
L 297.948896 211.139324 
L 297.948896 211.139324 
" clip-path="url(#peee7996802)" style="fill: none; stroke: #1f77b4; stroke-width: 1.5"/>
    <path d="M 162.571526 245.837543 
L 174.413637 242.288449 
L 179.676797 240.483226 
L 182.966272 239.151004 
L 185.597853 237.891457 
L 188.229433 236.382079 
L 190.203118 235.03331 
L 192.176803 233.452175 
L 194.150488 231.594076 
L 196.124174 229.414585 
L 198.097859 226.872787 
L 200.071544 223.935389 
L 202.045229 220.581364 
L 204.018914 216.806778 
L 205.992599 212.629345 
L 208.62418 206.511195 
L 211.913655 198.249261 
L 217.176815 184.953368 
L 219.150501 180.443802 
L 221.124186 176.447616 
L 222.439976 174.143551 
L 223.755766 172.17367 
L 225.071556 170.570886 
L 226.387346 169.360951 
L 227.703136 168.561562 
L 229.018926 168.181726 
L 230.334717 168.221444 
L 231.650507 168.671706 
L 232.966297 169.514819 
L 234.282087 170.725028 
L 235.597877 172.269421 
L 236.913667 174.109059 
L 238.887352 177.325666 
L 241.518933 182.216838 
L 249.413673 197.485983 
L 251.387358 200.770223 
L 253.361044 203.677336 
L 255.334729 206.17304 
L 257.308414 208.247302 
L 259.282099 209.910284 
L 261.255784 211.187638 
L 263.22947 212.115693 
L 265.203155 212.736957 
L 267.17684 213.096247 
L 269.150525 213.237614 
L 271.782105 213.157474 
L 274.413686 212.847225 
L 277.703161 212.238623 
L 282.308426 211.141906 
L 290.203167 208.980092 
L 294.150537 207.853954 
L 294.150537 207.853954 
" clip-path="url(#peee7996802)" style="fill: none; stroke: #1f77b4; stroke-width: 1.5"/>
    <path d="M 158.773167 242.551444 
L 173.246858 238.246545 
L 178.510018 236.478818 
L 182.457389 234.936942 
L 185.746864 233.409712 
L 188.378444 231.960484 
L 191.010025 230.249026 
L 193.641605 228.220094 
L 196.273185 225.826692 
L 198.904765 223.039864 
L 201.536346 219.859372 
L 204.167926 216.323476 
L 208.115296 210.548625 
L 213.378457 202.757188 
L 216.010037 199.256388 
L 217.983722 196.971127 
L 219.957407 195.063133 
L 221.273197 194.031965 
L 222.588987 193.210025 
L 223.904777 192.606739 
L 225.220568 192.226903 
L 226.536358 192.070518 
L 227.852148 192.132785 
L 229.167938 192.404282 
L 230.483728 192.871291 
L 231.799518 193.516284 
L 233.773203 194.77142 
L 235.746889 196.299978 
L 239.036364 199.21911 
L 244.299524 203.997632 
L 246.931105 206.091842 
L 248.90479 207.443509 
L 250.878475 208.580622 
L 252.85216 209.493749 
L 254.825845 210.184982 
L 256.79953 210.665523 
L 258.773216 210.953102 
L 261.404796 211.074347 
L 264.036376 210.947496 
L 267.325851 210.523169 
L 271.273222 209.745549 
L 276.536382 208.446631 
L 285.746913 205.88815 
L 290.352178 204.567855 
L 290.352178 204.567855 
" clip-path="url(#peee7996802)" style="fill: none; stroke: #1f77b4; stroke-width: 1.5"/>
    <path d="M 154.974808 239.264104 
L 172.737974 234.023452 
L 179.316925 231.849196 
L 183.92219 230.084773 
L 187.869561 228.308208 
L 191.159036 226.578913 
L 194.448511 224.584948 
L 197.737987 222.316311 
L 201.685357 219.275754 
L 212.211678 210.831416 
L 214.843258 209.089986 
L 217.474838 207.663838 
L 219.448524 206.835368 
L 221.422209 206.228253 
L 223.395894 205.844297 
L 225.369579 205.674573 
L 227.343264 205.700146 
L 229.974844 205.989594 
L 233.26432 206.644334 
L 243.790641 209.022055 
L 247.080116 209.391512 
L 250.369591 209.486298 
L 253.659067 209.316413 
L 256.948542 208.917243 
L 260.895912 208.20193 
L 266.159073 206.978647 
L 273.395918 205.036885 
L 286.553819 201.280515 
L 286.553819 201.280515 
" clip-path="url(#peee7996802)" style="fill: none; stroke: #1f77b4; stroke-width: 1.5"/>
    <path d="M 151.176449 235.975704 
L 174.202776 229.21422 
L 181.439622 226.866598 
L 186.702782 224.953406 
L 191.965943 222.79647 
L 197.229103 220.389665 
L 210.387004 214.174104 
L 214.334375 212.664745 
L 217.62385 211.646117 
L 220.913325 210.856178 
L 224.2028 210.274003 
L 228.808066 209.716276 
L 242.623862 208.266855 
L 247.229127 207.480955 
L 252.492288 206.35546 
L 259.071238 204.700649 
L 269.597559 201.774872 
L 282.755461 197.992116 
L 282.755461 197.992116 
" clip-path="url(#peee7996802)" style="fill: none; stroke: #1f77b4; stroke-width: 1.5"/>
    <path d="M 147.37809 232.686668 
L 177.641263 223.834712 
L 187.509689 220.695013 
L 197.378114 217.300723 
L 207.904435 213.704568 
L 213.825491 211.907225 
L 219.746546 210.33418 
L 228.299182 208.333429 
L 240.141293 205.556142 
L 249.351824 203.144489 
L 263.16762 199.25247 
L 278.957102 194.703079 
L 278.957102 194.703079 
" clip-path="url(#peee7996802)" style="fill: none; stroke: #1f77b4; stroke-width: 1.5"/>
    <path d="M 143.579731 229.397339 
L 184.369225 217.509435 
L 215.948188 208.127482 
L 261.342947 195.40057 
L 275.158743 191.41375 
L 275.158743 191.41375 
" clip-path="url(#peee7996802)" style="fill: none; stroke: #1f77b4; stroke-width: 1.5"/>
    <path d="M 139.781372 226.107903 
L 271.360384 188.124315 
L 271.360384 188.124315 
" clip-path="url(#peee7996802)" style="fill: none; stroke: #1f77b4; stroke-width: 1.5"/>
    <path d="M 135.983013 222.818437 
L 267.562025 184.834848 
L 267.562025 184.834848 
" clip-path="url(#peee7996802)" style="fill: none; stroke: #1f77b4; stroke-width: 1.5"/>
    <path d="M 211.950191 288.607943 
L 135.983013 222.818437 
L 135.983013 222.818437 
" clip-path="url(#peee7996802)" style="fill: none; stroke: #1f77b4; stroke-width: 1.5"/>
    <path d="M 218.529142 286.708755 
L 142.561964 220.919249 
L 142.561964 220.919249 
" clip-path="url(#peee7996802)" style="fill: none; stroke: #1f77b4; stroke-width: 1.5"/>
    <path d="M 225.108092 284.809535 
L 200.038924 262.952558 
L 184.085816 248.89184 
L 149.900586 219.677902 
L 149.140915 219.020029 
L 149.140915 219.020029 
" clip-path="url(#peee7996802)" style="fill: none; stroke: #1f77b4; stroke-width: 1.5"/>
    <path d="M 231.687043 282.910209 
L 213.45492 266.980628 
L 207.377546 261.359584 
L 193.323618 248.088779 
L 189.145423 244.663325 
L 181.928541 239.144797 
L 175.851167 234.336078 
L 169.014121 228.598375 
L 155.719865 217.120704 
L 155.719865 217.120704 
" clip-path="url(#peee7996802)" style="fill: none; stroke: #1f77b4; stroke-width: 1.5"/>
    <path d="M 238.265994 281.010591 
L 224.212066 268.695382 
L 219.654035 264.396854 
L 216.235512 260.878887 
L 212.816989 257.037903 
L 207.119451 250.187783 
L 203.700928 246.286154 
L 201.421912 243.991742 
L 199.142897 242.018057 
L 196.863882 240.365098 
L 194.20503 238.760603 
L 183.949461 232.995926 
L 180.910774 230.844207 
L 177.112415 227.869681 
L 171.414877 223.087989 
L 162.298816 215.221086 
L 162.298816 215.221086 
" clip-path="url(#peee7996802)" style="fill: none; stroke: #1f77b4; stroke-width: 1.5"/>
    <path d="M 244.844944 279.110336 
L 233.829703 269.424088 
L 230.031344 265.795997 
L 227.372493 262.97524 
L 225.093478 260.263079 
L 222.814463 257.198189 
L 220.535447 253.739613 
L 217.876596 249.250886 
L 211.419386 237.98208 
L 209.520206 235.249905 
L 208.000863 233.447691 
L 206.481519 232.032498 
L 205.342012 231.231452 
L 204.202504 230.64464 
L 203.062996 230.253124 
L 201.543653 229.986453 
L 199.644473 229.946045 
L 193.946935 230.133215 
L 192.047756 229.860425 
L 190.148576 229.315265 
L 188.249397 228.500938 
L 186.350217 227.448907 
L 184.071202 225.937306 
L 181.032515 223.632758 
L 176.474484 219.857792 
L 168.877766 213.320831 
L 168.877766 213.320831 
" clip-path="url(#peee7996802)" style="fill: none; stroke: #1f77b4; stroke-width: 1.5"/>
    <path d="M 251.423895 277.209021 
L 242.687669 269.496981 
L 239.269146 266.200764 
L 236.990131 263.732656 
L 235.090951 261.393637 
L 233.191772 258.688726 
L 231.672428 256.187927 
L 230.153085 253.333124 
L 228.253905 249.216637 
L 226.354726 244.487887 
L 224.075711 238.134189 
L 218.378172 221.818392 
L 216.858829 218.295699 
L 215.719321 216.110954 
L 214.579813 214.381733 
L 213.440306 213.143395 
L 212.680634 212.597527 
L 211.920962 212.273304 
L 211.16129 212.163583 
L 210.401619 212.256743 
L 209.641947 212.537091 
L 208.502439 213.265756 
L 207.362932 214.295498 
L 205.843588 215.989301 
L 201.285557 221.387937 
L 199.766214 222.765507 
L 198.626706 223.55873 
L 197.487198 224.129719 
L 196.347691 224.476981 
L 195.208183 224.608964 
L 194.068675 224.541506 
L 192.549332 224.177502 
L 191.029988 223.551268 
L 189.130809 222.484171 
L 186.851794 220.912854 
L 183.813106 218.529657 
L 178.115568 213.713017 
L 175.456717 211.419515 
L 175.456717 211.419515 
" clip-path="url(#peee7996802)" style="fill: none; stroke: #1f77b4; stroke-width: 1.5"/>
    <path d="M 258.002845 275.306465 
L 250.785963 268.904119 
L 247.747276 265.948503 
L 245.468261 263.428473 
L 243.569081 260.973238 
L 242.049738 258.66299 
L 240.530394 255.93937 
L 239.011051 252.696876 
L 237.491707 248.834112 
L 235.972364 244.269471 
L 234.45302 238.960188 
L 232.553841 231.307947 
L 230.274825 220.928933 
L 225.716795 199.549235 
L 224.197451 193.542905 
L 223.057943 189.792826 
L 221.918436 186.831998 
L 221.158764 185.344004 
L 220.399092 184.266556 
L 219.63942 183.608661 
L 218.879749 183.370319 
L 218.120077 183.542522 
L 217.360405 184.107576 
L 216.600733 185.039726 
L 215.841062 186.30606 
L 214.701554 188.74565 
L 213.18221 192.769054 
L 210.903195 199.668815 
L 208.244344 207.573273 
L 206.725 211.470151 
L 205.205657 214.699719 
L 204.066149 216.637879 
L 202.926641 218.155965 
L 201.787134 219.26984 
L 200.647626 220.009244 
L 199.508118 220.413037 
L 198.368611 220.52489 
L 197.229103 220.389665 
L 196.089595 220.050625 
L 194.570252 219.349504 
L 192.671072 218.183699 
L 190.012221 216.219258 
L 185.834026 212.773719 
L 182.035667 209.516959 
L 182.035667 209.516959 
" clip-path="url(#peee7996802)" style="fill: none; stroke: #1f77b4; stroke-width: 1.5"/>
    <path d="M 264.581796 273.403181 
L 258.124586 267.636119 
L 255.465735 265.01254 
L 253.566555 262.892175 
L 251.667376 260.409618 
L 250.148032 258.028111 
L 248.628689 255.152701 
L 247.489181 252.579696 
L 246.349673 249.572327 
L 245.210166 246.060914 
L 244.070658 241.98129 
L 242.551314 235.570288 
L 241.031971 227.991454 
L 239.512627 219.269964 
L 237.613448 206.994368 
L 231.536073 165.949212 
L 230.396566 159.91075 
L 229.257058 154.98322 
L 228.497386 152.407359 
L 227.737715 150.447611 
L 226.978043 149.131725 
L 226.598207 148.720195 
L 226.218371 148.47383 
L 225.838535 148.392184 
L 225.458699 148.473926 
L 225.078863 148.716846 
L 224.319192 149.673148 
L 223.55952 151.226867 
L 222.799848 153.331799 
L 221.66034 157.396576 
L 220.520833 162.347929 
L 218.621653 171.885717 
L 214.443458 193.46805 
L 212.924115 200.083342 
L 211.404771 205.611991 
L 210.265264 208.991756 
L 209.125756 211.718117 
L 207.986248 213.824056 
L 206.846741 215.361784 
L 205.707233 216.395468 
L 204.947561 216.838917 
L 203.808054 217.187676 
L 202.668546 217.216789 
L 201.529038 216.988544 
L 200.009695 216.37759 
L 198.490351 215.513187 
L 196.211336 213.914684 
L 192.792813 211.16984 
L 188.614618 207.613675 
L 188.614618 207.613675 
" clip-path="url(#peee7996802)" style="fill: none; stroke: #1f77b4; stroke-width: 1.5"/>
    <path d="M 271.160746 271.50049 
L 265.463208 266.400774 
L 262.804357 263.774894 
L 260.905177 261.640218 
L 259.385834 259.661456 
L 257.86649 257.318705 
L 256.347147 254.462693 
L 255.207639 251.875416 
L 254.068131 248.810757 
L 252.928624 245.177097 
L 251.789116 240.883156 
L 250.649608 235.84488 
L 249.510101 229.993872 
L 247.990757 220.85848 
L 246.471414 210.204555 
L 244.572234 194.992969 
L 241.533547 168.06784 
L 239.254532 148.375976 
L 237.735188 136.931071 
L 236.595681 129.781557 
L 235.456173 124.173892 
L 234.696501 121.401457 
L 233.936829 119.456447 
L 233.177158 118.366415 
L 232.797322 118.145648 
L 232.417486 118.140657 
L 232.03765 118.349697 
L 231.657814 118.769877 
L 230.898142 120.226522 
L 230.13847 122.465763 
L 229.378799 125.427073 
L 228.239291 131.057673 
L 227.099783 137.849655 
L 225.200604 150.853629 
L 221.022409 180.247299 
L 219.503066 189.320945 
L 217.983722 196.971127 
L 216.844214 201.704384 
L 215.704707 205.581707 
L 214.565199 208.646298 
L 213.425691 210.966554 
L 212.286184 212.626529 
L 211.526512 213.411355 
L 210.76684 213.97065 
L 210.007168 214.331095 
L 209.247497 214.518127 
L 208.107989 214.52502 
L 206.968481 214.266697 
L 205.449138 213.613879 
L 203.549958 212.45908 
L 201.270943 210.779015 
L 197.472584 207.657202 
L 195.193569 205.710984 
L 195.193569 205.710984 
" clip-path="url(#peee7996802)" style="fill: none; stroke: #1f77b4; stroke-width: 1.5"/>
    <path d="M 277.739697 269.599913 
L 272.042159 264.484611 
L 269.383307 261.82829 
L 267.484128 259.647474 
L 265.964784 257.606276 
L 264.445441 255.166813 
L 263.305933 252.978993 
L 262.166426 250.393615 
L 261.026918 247.318369 
L 259.88741 243.654228 
L 258.747903 239.300448 
L 257.608395 234.161476 
L 256.468887 228.155649 
L 254.949544 218.704579 
L 253.4302 207.578452 
L 251.910857 194.894809 
L 249.631841 173.665982 
L 245.833482 137.482421 
L 244.314139 125.083614 
L 243.174631 117.353735 
L 242.035123 111.310908 
L 241.275452 108.339337 
L 240.51578 106.273114 
L 240.135944 105.589701 
L 239.756108 105.142386 
L 239.376272 104.931806 
L 238.996436 104.957324 
L 238.6166 105.217029 
L 238.236765 105.707757 
L 237.477093 107.363538 
L 236.717421 109.875614 
L 235.957749 113.17776 
L 234.818242 119.431553 
L 233.678734 126.9561 
L 231.779554 141.339606 
L 227.60136 173.842167 
L 226.082016 183.89423 
L 224.562673 192.388776 
L 223.423165 197.66072 
L 222.283657 201.996122 
L 221.14415 205.442254 
L 220.004642 208.073953 
L 218.865134 209.983191 
L 218.105462 210.903884 
L 217.345791 211.577807 
L 216.586119 212.034153 
L 215.826447 212.300756 
L 214.686939 212.401233 
L 213.547432 212.211517 
L 212.407924 211.798544 
L 210.888581 210.994359 
L 208.989401 209.717956 
L 206.33055 207.650327 
L 201.772519 203.810407 
L 201.772519 203.810407 
" clip-path="url(#peee7996802)" style="fill: none; stroke: #1f77b4; stroke-width: 1.5"/>
    <path d="M 284.318648 267.702131 
L 278.621109 262.602415 
L 275.962258 259.976535 
L 274.063079 257.841859 
L 272.543735 255.863097 
L 271.024391 253.520346 
L 269.505048 250.664334 
L 268.36554 248.077057 
L 267.226033 245.012399 
L 266.086525 241.378738 
L 264.947017 237.084797 
L 263.80751 232.046521 
L 262.668002 226.195513 
L 261.148658 217.060121 
L 259.629315 206.406196 
L 257.730135 191.19461 
L 254.691448 164.269481 
L 252.412433 144.577617 
L 250.893089 133.132712 
L 249.753582 125.983198 
L 248.614074 120.375533 
L 247.854402 117.603098 
L 247.09473 115.658088 
L 246.335059 114.568056 
L 245.955223 114.347289 
L 245.575387 114.342298 
L 245.195551 114.551338 
L 244.815715 114.971518 
L 244.056043 116.428163 
L 243.296372 118.667404 
L 242.5367 121.628714 
L 241.397192 127.259314 
L 240.257684 134.051296 
L 238.358505 147.05527 
L 234.18031 176.44894 
L 232.660967 185.522586 
L 231.141623 193.172768 
L 230.002115 197.906025 
L 228.862608 201.783349 
L 227.7231 204.847939 
L 226.583592 207.168195 
L 225.444085 208.82817 
L 224.684413 209.612996 
L 223.924741 210.172291 
L 223.165069 210.532736 
L 222.405398 210.719768 
L 221.26589 210.726661 
L 220.126382 210.468338 
L 218.607039 209.81552 
L 216.707859 208.660721 
L 214.428844 206.980656 
L 210.630485 203.858843 
L 208.35147 201.912625 
L 208.35147 201.912625 
" clip-path="url(#peee7996802)" style="fill: none; stroke: #1f77b4; stroke-width: 1.5"/>
    <path d="M 290.897598 265.806463 
L 284.440388 260.039402 
L 281.781537 257.415822 
L 279.882357 255.295457 
L 277.983178 252.8129 
L 276.463834 250.431393 
L 274.944491 247.555984 
L 273.804983 244.982979 
L 272.665476 241.97561 
L 271.525968 238.464196 
L 270.38646 234.384572 
L 268.867117 227.973571 
L 267.347773 220.394737 
L 265.82843 211.673246 
L 263.92925 199.39765 
L 257.851876 158.352494 
L 256.712368 152.314032 
L 255.57286 147.386502 
L 254.813189 144.810642 
L 254.053517 142.850893 
L 253.293845 141.535007 
L 252.914009 141.123477 
L 252.534173 140.877112 
L 252.154337 140.795467 
L 251.774502 140.877208 
L 251.394666 141.120129 
L 250.634994 142.07643 
L 249.875322 143.63015 
L 249.11565 145.735082 
L 247.976143 149.799859 
L 246.836635 154.751211 
L 244.937456 164.289 
L 240.759261 185.871332 
L 239.239917 192.486624 
L 237.720574 198.015273 
L 236.581066 201.395038 
L 235.441558 204.1214 
L 234.302051 206.227338 
L 233.162543 207.765067 
L 232.023035 208.79875 
L 231.263364 209.242199 
L 230.123856 209.590959 
L 228.984348 209.620072 
L 227.844841 209.391827 
L 226.325497 208.780872 
L 224.806153 207.91647 
L 222.527138 206.317966 
L 219.108615 203.573122 
L 214.93042 200.016957 
L 214.93042 200.016957 
" clip-path="url(#peee7996802)" style="fill: none; stroke: #1f77b4; stroke-width: 1.5"/>
    <path d="M 297.476549 263.911389 
L 290.259667 257.509042 
L 287.22098 254.553427 
L 284.941964 252.033397 
L 283.042785 249.578161 
L 281.523441 247.267914 
L 280.004098 244.544293 
L 278.484754 241.301799 
L 276.965411 237.439035 
L 275.446067 232.874395 
L 273.926724 227.565111 
L 272.027544 219.91287 
L 269.748529 209.533856 
L 265.190498 188.154158 
L 263.671155 182.147829 
L 262.531647 178.397749 
L 261.392139 175.436921 
L 260.632468 173.948928 
L 259.872796 172.871479 
L 259.113124 172.213584 
L 258.353452 171.975242 
L 257.59378 172.147446 
L 256.834109 172.7125 
L 256.074437 173.644649 
L 255.314765 174.910983 
L 254.175257 177.350573 
L 252.655914 181.373978 
L 250.376899 188.273738 
L 247.718047 196.178196 
L 246.198704 200.075075 
L 244.67936 203.304643 
L 243.539853 205.242802 
L 242.400345 206.760888 
L 241.260837 207.874764 
L 240.12133 208.614167 
L 238.981822 209.01796 
L 237.842314 209.129814 
L 236.702807 208.994589 
L 235.563299 208.655548 
L 234.043955 207.954428 
L 232.144776 206.788622 
L 229.485925 204.824181 
L 225.30773 201.378642 
L 221.509371 198.121883 
L 221.509371 198.121883 
" clip-path="url(#peee7996802)" style="fill: none; stroke: #1f77b4; stroke-width: 1.5"/>
    <path d="M 304.055499 262.015586 
L 295.319274 254.303546 
L 291.900751 251.007329 
L 289.621736 248.539221 
L 287.722556 246.200201 
L 285.823377 243.49529 
L 284.304033 240.994491 
L 282.78469 238.139688 
L 280.88551 234.023202 
L 278.986331 229.294452 
L 276.707315 222.940754 
L 271.009777 206.624956 
L 269.490433 203.102264 
L 268.350926 200.917518 
L 267.211418 199.188298 
L 266.07191 197.94996 
L 265.312239 197.404092 
L 264.552567 197.079869 
L 263.792895 196.970148 
L 263.033223 197.063307 
L 262.273552 197.343656 
L 261.134044 198.07232 
L 259.994536 199.102062 
L 258.475193 200.795865 
L 253.917162 206.194501 
L 252.397818 207.572071 
L 251.258311 208.365294 
L 250.118803 208.936284 
L 248.979295 209.283546 
L 247.839788 209.415528 
L 246.70028 209.34807 
L 245.180937 208.984066 
L 243.661593 208.357832 
L 241.762414 207.290735 
L 239.483398 205.719419 
L 236.444711 203.336222 
L 230.747173 198.519582 
L 228.088322 196.22608 
L 228.088322 196.22608 
" clip-path="url(#peee7996802)" style="fill: none; stroke: #1f77b4; stroke-width: 1.5"/>
    <path d="M 310.63445 260.118542 
L 299.619209 250.432293 
L 295.82085 246.804203 
L 293.161999 243.983446 
L 290.882984 241.271285 
L 288.603968 238.206394 
L 286.324953 234.747818 
L 283.666102 230.259091 
L 277.208892 218.990285 
L 275.309712 216.258111 
L 273.790369 214.455897 
L 272.271025 213.040703 
L 271.131517 212.239657 
L 269.99201 211.652846 
L 268.852502 211.26133 
L 267.333159 210.994659 
L 265.433979 210.954251 
L 259.736441 211.14142 
L 257.837261 210.86863 
L 255.938082 210.32347 
L 254.038902 209.509144 
L 252.139723 208.457113 
L 249.860708 206.945511 
L 246.822021 204.640964 
L 242.26399 200.865998 
L 234.667272 194.329036 
L 234.667272 194.329036 
" clip-path="url(#peee7996802)" style="fill: none; stroke: #1f77b4; stroke-width: 1.5"/>
    <path d="M 317.213401 258.220438 
L 303.159473 245.905229 
L 298.601442 241.606701 
L 295.182919 238.088734 
L 291.764396 234.24775 
L 286.066858 227.397629 
L 282.648335 223.496 
L 280.369319 221.201589 
L 278.090304 219.227904 
L 275.811289 217.574945 
L 273.152437 215.97045 
L 262.896868 210.205772 
L 259.858181 208.054053 
L 256.059822 205.079528 
L 250.362284 200.297836 
L 241.246223 192.430932 
L 241.246223 192.430932 
" clip-path="url(#peee7996802)" style="fill: none; stroke: #1f77b4; stroke-width: 1.5"/>
    <path d="M 323.792351 256.321697 
L 305.560228 240.392116 
L 299.482854 234.771072 
L 285.428926 221.500267 
L 281.250732 218.074813 
L 274.03385 212.556285 
L 267.956475 207.747566 
L 261.119429 202.009862 
L 247.825173 190.532191 
L 247.825173 190.532191 
" clip-path="url(#peee7996802)" style="fill: none; stroke: #1f77b4; stroke-width: 1.5"/>
    <path d="M 330.371302 254.422664 
L 305.302133 232.565687 
L 289.349026 218.504969 
L 255.163796 189.291031 
L 254.404124 188.633158 
L 254.404124 188.633158 
" clip-path="url(#peee7996802)" style="fill: none; stroke: #1f77b4; stroke-width: 1.5"/>
    <path d="M 336.950252 252.523525 
L 260.983074 186.734019 
L 260.983074 186.734019 
" clip-path="url(#peee7996802)" style="fill: none; stroke: #1f77b4; stroke-width: 1.5"/>
    <path d="M 343.529203 250.624354 
L 267.562025 184.834848 
L 267.562025 184.834848 
" clip-path="url(#peee7996802)" style="fill: none; stroke: #1f77b4; stroke-width: 1.5"/>
   </g>
  </g>
 </g>
 <defs>
  <clipPath id="peee7996802">
   <rect x="103.104" y="41.472" width="266.112" height="266.112"/>
  </clipPath>
 </defs>
</svg>
